<svg width="1024" height="1024" viewBox="0 0 1024 1024" xmlns="http://www.w3.org/2000/svg">
  <title>Reviewr app icon</title>
  <defs>
    <linearGradient id="bg" x1="0" y1="0" x2="0" y2="1">
      <stop offset="0" stop-color="#241a38"/>
      <stop offset="1" stop-color="#0d0917"/>
    </linearGradient>
    <radialGradient id="glow" cx="0.5" cy="0.6" r="0.7">
      <stop offset="0" stop-color="#7c3aed" stop-opacity="0.5"/>
      <stop offset="0.55" stop-color="#7c3aed" stop-opacity="0.16"/>
      <stop offset="1" stop-color="#7c3aed" stop-opacity="0"/>
    </radialGradient>
    <linearGradient id="stroke" gradientUnits="userSpaceOnUse" x1="3" y1="3" x2="21" y2="22">
      <stop offset="0" stop-color="#ede9fe"/>
      <stop offset="0.5" stop-color="#c4b5fd"/>
      <stop offset="1" stop-color="#8b5cf6"/>
    </linearGradient>
    <clipPath id="squircle">
      <rect x="100" y="100" width="824" height="824" rx="185"/>
    </clipPath>
    <filter id="soft" x="-60%" y="-60%" width="220%" height="220%">
      <feGaussianBlur stdDeviation="1.1"/>
    </filter>
  </defs>

  <g clip-path="url(#squircle)">
    <rect x="100" y="100" width="824" height="824" fill="url(#bg)"/>
    <rect x="100" y="100" width="824" height="824" fill="url(#glow)"/>
    <path d="M100 100h824v150c-270 70-554 70-824 0z" fill="#ffffff" opacity="0.025"/>
  </g>
  <rect x="103" y="103" width="818" height="818" rx="182" fill="none" stroke="#ffffff" stroke-opacity="0.08" stroke-width="6"/>

  <g transform="translate(232.4 232.4) scale(23.3)" fill="none" stroke-linecap="round" stroke-linejoin="round">
    <g stroke="#7c3aed" stroke-width="2.6" opacity="0.85" filter="url(#soft)">
      <circle cx="5" cy="6" r="3"/>
      <path d="M5 9v12"/>
      <circle cx="19" cy="18" r="3"/>
      <path d="M15 9l-3-3 3-3"/>
      <path d="M12 6h5a2 2 0 0 1 2 2v7"/>
    </g>
    <g stroke="url(#stroke)" stroke-width="2.1">
      <circle cx="5" cy="6" r="3"/>
      <path d="M5 9v12"/>
      <circle cx="19" cy="18" r="3"/>
      <path d="M15 9l-3-3 3-3"/>
      <path d="M12 6h5a2 2 0 0 1 2 2v7"/>
    </g>
  </g>
</svg>
